<svg xmlns="http://www.w3.org/2000/svg" version="1.1" xmlns:xlink="http://www.w3.org/1999/xlink" xmlns:svgjs="http://svgjs.dev/svgjs" width="1500" height="935" viewBox="0 0 1500 935"><g transform="matrix(1,0,0,1,-0.9090909090909918,0.3785425101214628)"><svg viewBox="0 0 396 247" data-background-color="#050816" preserveAspectRatio="xMidYMid meet" height="935" width="1500" xmlns="http://www.w3.org/2000/svg" xmlns:xlink="http://www.w3.org/1999/xlink"><g id="tight-bounds" transform="matrix(1,0,0,1,0.2400000000000091,-0.09999999999999432)"><svg viewBox="0 0 395.52 247.2" height="247.2" width="395.52"><g><svg></svg></g><g><svg viewBox="0 0 395.52 247.2" height="247.2" width="395.52"><g transform="matrix(1,0,0,1,113.49610080296479,47.215199999999996)"><svg viewBox="0 0 168.5277983940704 152.7696" height="152.7696" width="168.5277983940704"><g><svg viewBox="0 0 168.5277983940704 152.7696" height="152.7696" width="168.5277983940704"><g><svg viewBox="0 0 168.5277983940704 152.7696" height="152.7696" width="168.5277983940704"><g><svg viewBox="0 0 168.5277983940704 152.7696" height="152.7696" width="168.5277983940704"><g id="textblocktransform"><svg viewBox="0 0 168.5277983940704 152.7696" height="152.7696" width="168.5277983940704" id="textblock"><g><svg viewBox="0 0 168.5277983940704 152.7696" height="152.7696" width="168.5277983940704"><g transform="matrix(1,0,0,1,0,0)"><svg width="168.5277983940704" viewBox="1.1 -39.04 43.6 39.53" height="152.7696" data-palette-color="#0080ff"><path d="M11.01-19.51L11.01 0 4.35 0 4.35-19.51 1.1-19.51 1.1-26.15 4.35-26.15 4.35-27.39Q4.35-29.81 5.26-31.93 6.18-34.06 7.78-35.63 9.38-37.21 11.5-38.12 13.62-39.04 16.04-39.04L16.04-39.04 21.04-39.04 21.04-32.4 16.04-32.4Q14.97-32.4 14.05-32.02 13.13-31.64 12.46-30.97 11.79-30.3 11.4-29.38 11.01-28.47 11.01-27.39L11.01-27.39 11.01-26.15 19.19-26.15 19.19-19.51 11.01-19.51ZM44.7-20.95L44.7-20.95 39.82-16.04Q39.45-17.07 38.82-17.88 38.18-18.7 37.39-19.26 36.59-19.82 35.67-20.12 34.74-20.41 33.76-20.41L33.76-20.41Q32.39-20.41 31.19-19.85 29.98-19.29 29.09-18.27 28.2-17.26 27.68-15.87 27.17-14.48 27.17-12.79L27.17-12.79Q27.17-11.43 27.68-10.23 28.2-9.03 29.09-8.13 29.98-7.23 31.19-6.71 32.39-6.2 33.76-6.2L33.76-6.2Q34.74-6.2 35.64-6.47 36.55-6.74 37.34-7.24 38.13-7.74 38.75-8.46 39.38-9.18 39.77-10.06L39.77-10.06 44.65-5.15Q43.72-3.83 42.51-2.78 41.31-1.73 39.9-1 38.5-0.27 36.95 0.11 35.4 0.49 33.76 0.49L33.76 0.49Q31 0.49 28.57-0.55 26.14-1.59 24.33-3.39 22.51-5.2 21.46-7.62 20.41-10.03 20.41-12.79L20.41-12.79Q20.41-15.8 21.46-18.41 22.51-21.02 24.33-22.96 26.14-24.9 28.57-26.03 31-27.15 33.76-27.15L33.76-27.15Q35.4-27.15 36.97-26.73 38.55-26.32 39.98-25.52 41.4-24.73 42.61-23.58 43.82-22.44 44.7-20.95Z" opacity="1" transform="matrix(1,0,0,1,0,0)" fill="#0080ff" class="wordmark-text-0" data-fill-palette-color="primary" id="text-0"></path></svg></g></svg></g></svg></g></svg></g></svg></g></svg></g></svg></g><g><path d="M0 123.6c0-68.262 55.338-123.6 123.6-123.6 30.402 0 58.24 10.976 79.768 29.183l-11.147 0c-19.26-14.022-42.974-22.294-68.621-22.295-64.458 0-116.712 52.254-116.712 116.712 0 64.458 52.254 116.712 116.712 116.712 25.647 0 49.361-8.272 68.621-22.295l11.147 0c-21.528 18.206-49.366 29.183-79.768 29.183-68.262 0-123.6-55.338-123.6-123.6z" fill="#0080ff" stroke="transparent" data-fill-palette-color="tertiary"></path></g></svg></g><defs></defs></svg><rect width="395.52" height="247.2" fill="none" stroke="none" visibility="hidden"></rect></g></svg></g></svg>